<svg xmlns="http://www.w3.org/2000/svg" version="1.1" xmlns:xlink="http://www.w3.org/1999/xlink" xmlns:svgjs="http://svgjs.dev/svgjs" width="1500" height="425" viewBox="0 0 1500 425"><g transform="matrix(1,0,0,1,-0.245085775260236,-2.4277878091695015)"><svg viewBox="0 0 289 82" data-background-color="#ffffff" preserveAspectRatio="xMidYMid meet" height="425" width="1500" xmlns="http://www.w3.org/2000/svg" xmlns:xlink="http://www.w3.org/1999/xlink"><g id="tight-bounds" transform="matrix(1,0,0,1,0.047219859366805395,0.4684202361221139)"><svg viewBox="0 0 288.9055602812664 80.781494140625" height="80.781494140625" width="288.9055602812664"><g><svg viewBox="0 0 288.9055602812664 80.781494140625" height="80.781494140625" width="288.9055602812664"><g><svg viewBox="0 0 288.9055602812664 80.781494140625" height="80.781494140625" width="288.9055602812664"><g id="textblocktransform"><svg viewBox="0 0 288.9055602812664 80.781494140625" height="80.781494140625" width="288.9055602812664" id="textblock"><g><svg viewBox="0 0 288.9055602812664 80.781494140625" height="80.781494140625" width="288.9055602812664"><g><svg><g></g><g></g></svg></g><g><svg><g></g><g><svg></svg></g></svg></g><g id="text-0"><svg viewBox="0 0 288.9055602812664 80.781494140625" height="80.781494140625" width="288.9055602812664"><g transform="matrix(1,0,0,1,0,6.3819580078125)"><svg width="45.0927734375" viewBox="1.46 -38.18 45.1 38.18" height="38.18359375" data-palette-color="#047097"><path d="M11.99-1.93L11.99-1.93Q10.03-5 8.17-8.83 6.3-12.65 4.79-16.69 3.27-20.73 2.37-24.48 1.46-28.22 1.46-31.18L1.46-31.18Q1.46-31.81 1.73-32.18L1.73-32.18Q2.29-32.96 3.11-33.8 3.93-34.64 5.05-35.57L5.05-35.57Q5.42-35.86 5.74-35.86L5.74-35.86Q6.05-35.86 6.37-35.57L6.37-35.57Q7.52-34.64 8.33-33.8 9.13-32.96 9.69-32.18L9.69-32.18Q9.96-31.81 9.96-31.1L9.96-31.1 9.96-31.2Q9.96-29.13 10.53-26.21 11.11-23.29 12.12-20.08 13.13-16.87 14.44-13.85 15.75-10.84 17.24-8.59L17.24-8.59 17.38-8.59Q19.02-10.84 20.35-13.83 21.68-16.82 22.64-20.02 23.61-23.22 24.13-26.14 24.66-29.05 24.66-31.18L24.66-31.18 24.66-31.1Q24.66-31.81 24.9-32.18L24.9-32.18Q26.07-33.79 28.13-35.57L28.13-35.57Q28.52-35.86 28.81-35.86L28.81-35.86Q29.08-35.86 29.44-35.57L29.44-35.57Q30.54-34.64 31.32-33.8 32.1-32.96 32.67-32.18L32.67-32.18Q32.91-31.79 32.91-31.13L32.91-31.13Q32.91-28.91 32.29-25.99 31.67-23.07 30.59-19.82 29.52-16.58 28.15-13.33 26.78-10.08 25.27-7.14 23.75-4.2 22.24-1.93L22.24-1.93Q20.97 0 18.77 0L18.77 0 15.41 0Q13.21 0 11.99-1.93ZM1.46-31.1L1.46-31.2 1.46-31.18 1.46-31.1ZM32.91-31.13L32.91-31.18 32.91-31.1 32.91-31.13ZM36.55-33.2L36.55-33.2Q36.55-33.52 36.74-33.76 36.94-34.01 37.25-34.4L37.25-34.4Q37.94-35.18 38.84-36.05 39.74-36.91 40.67-37.72L40.67-37.72Q41.26-38.18 41.55-38.18L41.55-38.18Q41.84-38.18 42.45-37.72L42.45-37.72Q44.43-36.01 45.82-34.4L45.82-34.4Q46.14-34.03 46.35-33.78 46.56-33.52 46.56-33.2L46.56-33.2Q46.56-32.89 46.35-32.64 46.14-32.4 45.8-31.98L45.8-31.98Q45.14-31.23 44.26-30.36 43.38-29.49 42.45-28.71L42.45-28.71Q42.11-28.42 41.92-28.33 41.72-28.25 41.55-28.25L41.55-28.25Q41.38-28.25 41.2-28.33 41.01-28.42 40.62-28.71L40.62-28.71Q39.65-29.49 38.79-30.36 37.94-31.23 37.25-32.03L37.25-32.03Q36.94-32.42 36.74-32.65 36.55-32.89 36.55-33.2ZM45.38-23.71L45.38-1.29Q45.38-0.56 45.08-0.28 44.77 0 44.04 0L44.04 0 39.01 0Q38.28 0 37.97-0.28 37.67-0.56 37.67-1.29L37.67-1.29 37.67-23.71Q37.67-24.44 37.97-24.72 38.28-25 39.01-25L39.01-25 44.04-25Q44.77-25 45.08-24.72 45.38-24.44 45.38-23.71L45.38-23.71Z" opacity="1" transform="matrix(1,0,0,1,0,0)" fill="#047097" class="undefined-tk-0"></path></svg></g><g><svg xmlns="http://www.w3.org/2000/svg" xmlns:xlink="http://www.w3.org/1999/xlink" version="1.1" x="64.164794921875" y="0" viewBox="26.373 3.721 46.25999999999999 91.26299999999999" enable-background="new 0 0 100 100" xml:space="preserve" height="80.781494140625" width="40.94706418751643" class="icon-dxe-0" data-fill-palette-color="accent" id="dxe-0"><path fill="#3d9970" d="M55.84 90.075C52.444 90.075 51.937 86.176 51.937 83.85V82.796C55.869 78.828 72.633 60.913 72.633 43.971 72.633 26.426 54.635 7.819 51.559 4.768A2.5 2.5 0 0 0 50.914 4.14L50.479 3.721H49.476L49.377 3.723 48.498 3.734 48.072 4.153A2.5 2.5 0 0 0 47.445 4.769C44.37 7.82 26.373 26.43 26.373 43.972 26.373 60.858 43.029 78.713 47.029 82.756V83.851C47.029 92.068 51.776 94.984 55.841 94.984A2.454 2.454 0 1 0 55.84 90.075M31.281 43.972C31.281 30.076 44.58 14.846 49.503 9.684 54.426 14.845 67.725 30.073 67.725 43.972 67.725 55.977 57.814 68.962 51.937 75.607V66.188L59.9 59.1A2.455 2.455 0 1 0 56.636 55.433L51.936 59.617V54.034L59.9 46.946A2.454 2.454 0 1 0 56.637 43.279L51.936 47.463V41.878L59.9 34.79A2.455 2.455 0 0 0 56.637 31.123L51.936 35.307V25.44A2.454 2.454 0 0 0 47.028 25.44V75.56C41.147 68.9 31.281 55.947 31.281 43.972" data-fill-palette-color="accent"></path></svg></g><g transform="matrix(1,0,0,1,124.18388059376643,17.014282226562504)"><svg width="164.72167968749994" viewBox="3.66 -35.01 164.71 46.75" height="46.75292968749999" data-palette-color="#047097"><path d="M23.54-14.01L23.73-14.01Q24.07-15.33 24.48-16.61 24.88-17.9 25.46-19.48L25.46-19.48Q25.98-20.9 26.71-22.74 27.44-24.58 28.26-26.49 29.08-28.39 29.86-30.03 30.64-31.67 31.27-32.64L31.27-32.64Q32.06-33.84 32.97-34.42 33.89-35.01 35.67-35.01L35.67-35.01 38.87-35.01Q40.14-35.01 41-34.63 41.87-34.25 42.24-32.84L42.24-32.84Q42.5-31.79 42.75-29.76 42.99-27.73 43.16-24.15 43.33-20.56 43.43-14.93 43.53-9.3 43.53-1.03L43.53-1.03Q43.53-0.59 43.24-0.29 42.94 0 42.53 0L42.53 0 36.96 0Q36.55 0 36.25-0.29 35.96-0.59 35.96-1.05L35.96-1.05Q35.96-7.5 35.96-11.99 35.96-16.48 35.94-19.43 35.91-22.39 35.88-24.13 35.84-25.88 35.77-26.83L35.77-26.83 35.62-26.83Q34.33-23.85 32.86-20.2 31.4-16.55 30-12.68 28.61-8.81 27.51-5.13L27.51-5.13Q27.2-4.03 26.72-3.6 26.25-3.17 24.56-3.17L24.56-3.17 21.75-3.17Q20.31-3.17 19.84-3.54 19.36-3.91 19.02-5.13L19.02-5.13Q18.21-7.91 17.24-11.01 16.26-14.11 15.22-17.1 14.18-20.09 13.22-22.62 12.26-25.15 11.5-26.83L11.5-26.83 11.35-26.83Q11.16-23.95 11.01-19.82 10.86-15.7 10.78-10.86 10.69-6.03 10.67-1L10.67-1Q10.67-0.56 10.38-0.28 10.08 0 9.67 0L9.67 0 4.66 0Q4.25 0 3.96-0.29 3.66-0.59 3.66-1.05L3.66-1.05Q3.69-14.06 4.19-21.83 4.69-29.59 5.27-32.23L5.27-32.23Q5.66-33.96 6.65-34.48 7.64-35.01 8.91-35.01L8.91-35.01 12.87-35.01Q14.21-35.01 14.83-34.53 15.45-34.06 16.36-32.69L16.36-32.69Q16.89-31.88 17.64-30.27 18.38-28.66 19.19-26.7 20-24.73 20.72-22.81 21.44-20.9 21.9-19.48L21.9-19.48Q22.39-18.04 22.8-16.69 23.22-15.33 23.54-14.01L23.54-14.01ZM62.47 0.61L62.47 0.61Q56.32 0.61 52.73-2.66 49.14-5.93 49.14-12.4L49.14-12.4Q49.14-19.04 52.87-22.33 56.59-25.61 62.81-25.61L62.81-25.61Q68.82-25.61 72.43-22.38 76.05-19.14 76.05-12.84L76.05-12.84Q76.05-6.27 72.43-2.83 68.82 0.61 62.47 0.61ZM62.72-5.3L62.72-5.3Q65.4-5.3 66.77-6.97 68.14-8.64 68.14-12.7L68.14-12.7Q68.14-16.55 66.76-18.13 65.38-19.7 62.67-19.7L62.67-19.7Q60.06-19.7 58.55-18.01 57.05-16.31 57.05-12.5L57.05-12.5Q57.05-8.52 58.48-6.91 59.91-5.3 62.72-5.3ZM105.46-15.55L105.46-15.55 105.46-1.29Q105.46-0.56 105.16-0.28 104.85 0 104.12 0L104.12 0 99.09 0Q98.36 0 98.05-0.28 97.75-0.56 97.75-1.29L97.75-1.29 97.75-14.28Q97.75-16.94 96.63-18.16 95.5-19.38 93.57-19.38L93.57-19.38Q91.65-19.38 90.61-18.55 89.57-17.72 89.01-16.46L89.01-16.46 89.01-1.29Q89.01-0.56 88.7-0.28 88.4 0 87.67 0L87.67 0 82.64 0Q81.9 0 81.6-0.28 81.29-0.56 81.29-1.29L81.29-1.29 81.29-21.75Q81.29-22.34 81.54-22.66L81.54-22.66Q82.05-23.34 82.77-24.05 83.49-24.76 84.54-25.56L84.54-25.56Q84.86-25.81 85.15-25.81L85.15-25.81Q85.42-25.81 85.76-25.56L85.76-25.56Q86.79-24.76 87.52-24.02 88.25-23.29 88.81-22.51L88.81-22.51 88.94-22.51Q89.35-23.05 90.18-23.77 91.01-24.49 92.51-25.05 94.01-25.61 96.36-25.61L96.36-25.61Q98.65-25.61 100.73-24.68 102.8-23.75 104.13-21.56 105.46-19.36 105.46-15.55ZM136.22-22.66L136.22-22.66 136.22-2.86Q136.22 4.27 132.16 8.01 128.09 11.74 121.01 11.74L121.01 11.74Q118.08 11.74 116.37 11.32 114.67 10.89 113.79 10.5L113.79 10.5Q113.22 10.23 113.05 9.94L113.05 9.94Q112.81 9.55 112.5 8.79 112.2 8.03 111.93 7.13L111.93 7.13Q111.86 6.79 111.91 6.62L111.91 6.62Q112 6.37 112.27 6.1L112.27 6.1Q112.71 5.66 113.53 5.08 114.35 4.49 114.79 4.32L114.79 4.32Q115.25 4.15 115.64 4.37L115.64 4.37Q116.28 4.71 117.46 5.14 118.64 5.57 120.79 5.57L120.79 5.57Q124.21 5.57 126.36 3.81 128.51 2.05 128.51-1.61L128.51-1.61 128.51-2.49 128.41-2.49Q127.87-1.81 127.02-1.1 126.16-0.39 124.81 0.1 123.45 0.59 121.33 0.59L121.33 0.59Q117.64 0.59 115.29-1.01 112.93-2.61 111.82-5.42 110.71-8.23 110.71-11.82L110.71-11.82Q110.71-15.75 112-18.87 113.3-22 116.35-23.82 119.4-25.63 124.7-25.63L124.7-25.63Q127.87-25.63 130.03-25.17 132.19-24.71 133.66-24.02 135.12-23.34 136.22-22.66ZM124.43-19.73L124.43-19.73Q121.6-19.73 120.11-17.82 118.62-15.92 118.62-11.91L118.62-11.91Q118.62-5.64 123.8-5.64L123.8-5.64Q125.82-5.64 126.9-6.47 127.97-7.3 128.51-8.57L128.51-8.57 128.51-18.65Q127.97-19.04 126.99-19.38 126.02-19.73 124.43-19.73ZM154.8 0.61L154.8 0.61Q148.65 0.61 145.06-2.66 141.47-5.93 141.47-12.4L141.47-12.4Q141.47-19.04 145.19-22.33 148.92-25.61 155.14-25.61L155.14-25.61Q161.15-25.61 164.76-22.38 168.37-19.14 168.37-12.84L168.37-12.84Q168.37-6.27 164.76-2.83 161.15 0.61 154.8 0.61ZM155.04-5.3L155.04-5.3Q157.73-5.3 159.1-6.97 160.46-8.64 160.46-12.7L160.46-12.7Q160.46-16.55 159.08-18.13 157.7-19.7 154.99-19.7L154.99-19.7Q152.38-19.7 150.88-18.01 149.38-16.31 149.38-12.5L149.38-12.5Q149.38-8.52 150.81-6.91 152.24-5.3 155.04-5.3Z" opacity="1" transform="matrix(1,0,0,1,0,0)" fill="#047097" class="undefined-tk-1"></path></svg></g></svg></g></svg></g></svg></g></svg></g><g></g></svg></g><defs></defs></svg><rect width="288.9055602812664" height="80.781494140625" fill="none" stroke="none" visibility="hidden"></rect></g></svg></g></svg>